{
	"asset":{
		"generator":"Khronos glTF Blender I/O v3.5.30",
		"version":"2.0"
	},
	"scene":0,
	"scenes":[
		{
			"name":"Scene",
			"nodes":[
				0
			]
		}
	],
	"nodes":[
		{
			"mesh":0,
			"name":"Cylinder"
		}
	],
	"materials":[
		{
			"doubleSided":true,
			"name":"Material",
			"pbrMetallicRoughness":{
				"baseColorTexture":{
					"index":0
				},
				"metallicFactor":0,
				"roughnessFactor":0.5
			}
		}
	],
	"meshes":[
		{
			"name":"Cylinder.012",
			"primitives":[
				{
					"attributes":{
						"POSITION":0,
						"TEXCOORD_0":1,
						"NORMAL":2
					},
					"indices":3,
					"material":0
				}
			]
		}
	],
	"textures":[
		{
			"sampler":0,
			"source":0
		}
	],
	"images":[
		{
			"bufferView":4,
			"mimeType":"image/png",
			"name":"stone_bricks"
		}
	],
	"accessors":[
		{
			"bufferView":0,
			"componentType":5126,
			"count":168,
			"max":[
				0.4619397819042206,
				0.4970238208770752,
				0.44269227981567383
			],
			"min":[
				-0.4619397521018982,
				-0.50297611951828,
				-0.48118725419044495
			],
			"type":"VEC3"
		},
		{
			"bufferView":1,
			"componentType":5126,
			"count":168,
			"type":"VEC2"
		},
		{
			"bufferView":2,
			"componentType":5126,
			"count":168,
			"type":"VEC3"
		},
		{
			"bufferView":3,
			"componentType":5123,
			"count":372,
			"type":"SCALAR"
		}
	],
	"bufferViews":[
		{
			"buffer":0,
			"byteLength":2016,
			"byteOffset":0,
			"target":34962
		},
		{
			"buffer":0,
			"byteLength":1344,
			"byteOffset":2016,
			"target":34962
		},
		{
			"buffer":0,
			"byteLength":2016,
			"byteOffset":3360,
			"target":34962
		},
		{
			"buffer":0,
			"byteLength":744,
			"byteOffset":5376,
			"target":34963
		},
		{
			"buffer":0,
			"byteLength":242,
			"byteOffset":6120
		}
	],
	"samplers":[
		{
			"magFilter":9728,
			"minFilter":9984,
			"wrapS":33071,
			"wrapT":33071
		}
	],
	"buffers":[
		{
			"byteLength":6364,
			"uri":"data:application/octet-stream;base64,"
		}
	]
}
