{
	"asset":{
		"generator":"Khronos glTF Blender I/O v3.5.30",
		"version":"2.0"
	},
	"scene":0,
	"scenes":[
		{
			"name":"Scene",
			"nodes":[
				1
			]
		}
	],
	"nodes":[
		{
			"mesh":0,
			"name":"cylinder"
		},
		{
			"children":[
				0
			],
			"name":"Node_1"
		}
	],
	"materials":[
		{
			"doubleSided":true,
			"name":"Material",
			"pbrMetallicRoughness":{
				"baseColorTexture":{
					"index":0
				},
				"metallicFactor":0,
				"roughnessFactor":0.5
			}
		}
	],
	"meshes":[
		{
			"name":"Mesh_0",
			"primitives":[
				{
					"attributes":{
						"POSITION":0,
						"TEXCOORD_0":1,
						"NORMAL":2
					},
					"indices":3,
					"material":0
				}
			]
		}
	],
	"textures":[
		{
			"sampler":0,
			"source":0
		}
	],
	"images":[
		{
			"bufferView":4,
			"mimeType":"image/png",
			"name":"stone_bricks"
		}
	],
	"accessors":[
		{
			"bufferView":0,
			"componentType":5126,
			"count":56,
			"max":[
				0.1875,
				0.5,
				0.1875
			],
			"min":[
				-0.1875,
				-0.5,
				-0.1875
			],
			"type":"VEC3"
		},
		{
			"bufferView":1,
			"componentType":5126,
			"count":56,
			"type":"VEC2"
		},
		{
			"bufferView":2,
			"componentType":5126,
			"count":56,
			"type":"VEC3"
		},
		{
			"bufferView":3,
			"componentType":5123,
			"count":84,
			"type":"SCALAR"
		}
	],
	"bufferViews":[
		{
			"buffer":0,
			"byteLength":672,
			"byteOffset":0,
			"target":34962
		},
		{
			"buffer":0,
			"byteLength":448,
			"byteOffset":672,
			"target":34962
		},
		{
			"buffer":0,
			"byteLength":672,
			"byteOffset":1120,
			"target":34962
		},
		{
			"buffer":0,
			"byteLength":168,
			"byteOffset":1792,
			"target":34963
		},
		{
			"buffer":0,
			"byteLength":242,
			"byteOffset":1960
		}
	],
	"samplers":[
		{
			"magFilter":9728,
			"minFilter":9984
		}
	],
	"buffers":[
		{
			"byteLength":2204,
			"uri":"data:application/octet-stream;base64,"
		}
	]
}
